<?xml version="1.0" encoding="UTF-8" standalone="no"?><!DOCTYPE svg PUBLIC "-//W3C//DTD SVG 1.1//EN" "http://www.w3.org/Graphics/SVG/1.1/DTD/svg11.dtd"><svg width="100%" height="100%" viewBox="0 0 387 387" version="1.1" xmlns="http://www.w3.org/2000/svg" xmlns:xlink="http://www.w3.org/1999/xlink" xml:space="preserve" xmlns:serif="http://www.serif.com/" style="fill-rule:evenodd;clip-rule:evenodd;stroke-linejoin:round;stroke-miterlimit:2;"><g id="Timesheet-logo" serif:id="Timesheet logo"><circle cx="193.228" cy="193.228" r="193.228" style="fill:#150485;"/><path d="M198.045,8.784c-3.211,-0.084 -6.423,-0.084 -9.633,-0l-0,64.268c3.209,-0.129 6.423,-0.129 9.633,0l-0,-64.268Zm-92.868,22.302c-2.822,1.533 -5.604,3.139 -8.342,4.817l32.134,55.658c2.715,-1.716 5.498,-3.323 8.342,-4.817l-32.134,-55.658Zm-69.274,65.749c-1.678,2.738 -3.284,5.52 -4.817,8.342l55.658,32.134c1.494,-2.844 3.101,-5.627 4.817,-8.342l-55.658,-32.134Zm-27.119,91.577c-0.084,3.21 -0.084,6.422 -0,9.633l64.268,-0c-0.129,-3.21 -0.129,-6.424 0,-9.633l-64.268,-0Zm22.302,92.867c1.533,2.823 3.139,5.604 4.817,8.343l55.658,-32.134c-1.716,-2.716 -3.323,-5.499 -4.817,-8.343l-55.658,32.134Zm65.749,69.275c2.738,1.678 5.52,3.284 8.342,4.816l32.134,-55.658c-2.844,-1.493 -5.627,-3.1 -8.342,-4.817l-32.134,55.659Zm91.577,27.119c3.21,0.084 6.422,0.084 9.633,-0l-0,-64.269c-3.21,0.129 -6.424,0.129 -9.633,0l-0,64.269Zm92.867,-22.303c2.823,-1.532 5.604,-3.138 8.343,-4.816l-32.134,-55.659c-2.716,1.717 -5.499,3.324 -8.343,4.817l32.134,55.658Zm69.275,-65.748c1.678,-2.739 3.284,-5.52 4.816,-8.343l-55.658,-32.134c-1.493,2.844 -3.1,5.627 -4.817,8.343l55.659,32.134Zm27.119,-91.577c0.084,-3.211 0.084,-6.423 -0,-9.633l-64.269,-0c0.129,3.209 0.129,6.423 0,9.633l64.269,-0Zm-22.303,-92.868c-1.532,-2.822 -3.138,-5.604 -4.816,-8.342l-55.659,32.134c1.717,2.715 3.324,5.498 4.817,8.342l55.658,-32.134Zm-65.748,-69.274c-2.739,-1.678 -5.52,-3.284 -8.343,-4.817l-32.134,55.658c2.844,1.494 5.627,3.101 8.343,4.817l32.134,-55.658Z" style="fill:#03c4a1;"/><path d="M139.687,285.965c16.278,9.398 34.744,14.346 53.541,14.346c59.101,0 107.083,-47.982 107.083,-107.083c0,-59.14 -47.942,-107.083 -107.083,-107.083l0,107.083l-53.541,92.737Z" style="fill:#03c4a1;"/></g></svg>